<svg id="Layer_1" data-name="Layer 1" xmlns="http://www.w3.org/2000/svg" viewBox="0 0 714.68 114.53"><defs><style>.cls-1{fill:#201e2b;}.cls-2{fill:#0065ff;}</style></defs><path class="cls-1" d="M134.28,84.16l8.48-10.36a44.35,44.35,0,0,0,24.7,7.43c8.9,0,15.18-2.83,15.18-8.06s-7.43-6.6-14.45-7.75l-1.15-.1c-.21,0-.31-.11-.42-.11a1.18,1.18,0,0,1-.52-.1c-21.35-3.66-28.47-9.53-28.47-20.21,0-17.48,16.75-22.5,31-22.5,9.53,0,20.62,4.08,29.62,9l-8.89,10.26c-7.54-4.19-14.13-6-20.94-6-10.68,0-16.22,3.25-16.22,8.59,0,4.08,3.87,6.07,16.54,7.85C178.77,53.7,197.4,56.21,197.4,73c0,12.77-11.62,21.56-30.05,21.56C154.69,94.52,141.08,88.87,134.28,84.16Z"/><path class="cls-1" d="M253.61,63.22V93.27h-13.4V64.06c0-6-4-9.53-10.47-9.53-6,0-12.25,3.46-12.25,9.84v28.9H204.2V21.35h13.29V44.9c3.77-2,8.48-2.61,13.5-2.61C244,42.29,253.61,50.56,253.61,63.22Z"/><path class="cls-1" d="M314.42,93.27H301.54V91.49c-4,2.2-9,3-14.75,3-15,0-27.43-10.67-27.43-26.17s12.35-26.06,27.74-26.06a29.21,29.21,0,0,1,14,3.24V43.44h13.3ZM301.86,68.35c0-8.37-5.86-13.82-14.45-13.82S273,60.08,273,68.35s5.86,13.72,14.44,13.72S301.86,76.62,301.86,68.35Z"/><path class="cls-1" d="M377.64,68.35c0,15.5-12.25,26.17-27.42,26.17A25.71,25.71,0,0,1,335.46,90v3.25h-13V21.35h13.29V46a27.7,27.7,0,0,1,14-3.66C365.5,42.29,377.64,52.86,377.64,68.35Zm-13.6,0c0-8.27-5.87-13.82-14.56-13.82S335.14,60,335.14,68.35s5.76,13.72,14.34,13.72S364,76.52,364,68.35Z"/><path class="cls-1" d="M433.85,93.27H421V91.49c-4,2.2-9,3-14.75,3-15,0-27.43-10.67-27.43-26.17s12.35-26.06,27.74-26.06a29.28,29.28,0,0,1,14,3.24V43.44h13.29ZM421.29,68.35c0-8.37-5.86-13.82-14.45-13.82S392.4,60.08,392.4,68.35s5.86,13.72,14.44,13.72S421.29,76.62,421.29,68.35Z"/><path class="cls-1" d="M455.2,80.18V93.27H441.91V21.35H455.2V62.91l20.73-19.47h18.94L471,65.84l23.34,27.43h-17l-15.91-19Z"/><path class="cls-1" d="M547.11,93.27H534.23V91.49c-4,2.2-9,3-14.76,3-15,0-27.42-10.67-27.42-26.17s12.35-26.06,27.73-26.06a29.28,29.28,0,0,1,14,3.24V43.44h13.3ZM534.55,68.35c0-8.37-5.87-13.82-14.45-13.82s-14.45,5.55-14.45,13.82,5.87,13.72,14.45,13.72S534.55,76.62,534.55,68.35Z"/><path class="cls-2" d="M561.94,99.51V29.9h9V99.51Z"/><path class="cls-2" d="M578.27,64.66c0-21.25,16.85-36,39.67-36s39.78,14.76,39.78,36-16.85,36.11-39.78,36.11S578.27,86,578.27,64.66Zm70.14,0c0-16.75-12.46-28.27-30.47-28.27S587.59,48,587.59,64.66c0,16.85,12.46,28.37,30.35,28.37S648.41,81.4,648.41,64.66Z"/><path class="cls-2" d="M687.13,37.54v62h-9v-62H651.75V29.9h61.86v7.64Z"/><path class="cls-2" d="M712.78,88.44a6.49,6.49,0,1,0,1.9,4.59,6.43,6.43,0,0,0-1.9-4.59m-4.59,10A5.43,5.43,0,1,1,713.61,93a5.43,5.43,0,0,1-5.42,5.42"/><path class="cls-2" d="M709.68,93.19a1.84,1.84,0,0,0,1.26-1.78,1.7,1.7,0,0,0-.81-1.48,3.9,3.9,0,0,0-2.19-.54,11.71,11.71,0,0,0-2.08.2v7.06h1V93.53h1.3c1.05,0,1.72,1,2,3.12h1a10,10,0,0,0-.6-2.35,2.44,2.44,0,0,0-.93-1.11m-1.56-.45h-1.25V90.26a10.63,10.63,0,0,1,1.07,0c1.34,0,2,.41,2,1.25s-.61,1.27-1.83,1.27"/><path class="cls-2" d="M48.74,90.49a25.87,25.87,0,0,0,21.9,8.31,25.22,25.22,0,0,0,15.44-6.68,12.56,12.56,0,0,1,17.67.6,12.8,12.8,0,0,1,.45,17.34c-4.87,5.33-12.51,6-17.86,1.49-1-.89-1.87-2.07-2.9-3C76.11,102,67.59,100,58.06,102.23a24.3,24.3,0,0,0-10.93,5.84,12.5,12.5,0,0,1-17.27-.13,12.87,12.87,0,0,1-1-17.32,12.71,12.71,0,0,1,17.35-2.41A32.7,32.7,0,0,1,48.74,90.49Z"/><path class="cls-2" d="M58.29,79.88A26.09,26.09,0,0,0,40.92,72a25.76,25.76,0,0,0-19.81,6.63,12.5,12.5,0,0,1-18.2-1.22A12.9,12.9,0,0,1,4.65,59.38a12.78,12.78,0,0,1,17.8,1.53,25.25,25.25,0,0,0,16.68,8.45,26.53,26.53,0,0,0,21.25-6.6,12.67,12.67,0,0,1,18.46,1.66A12.86,12.86,0,1,1,58.29,79.88Z"/><path class="cls-2" d="M88.63,53A26.18,26.18,0,0,0,67.74,44.9a26,26,0,0,0-16.46,6.72A12.62,12.62,0,0,1,34,51.41a12.83,12.83,0,0,1-1-17.18,12.69,12.69,0,0,1,19.56-.49,24.53,24.53,0,0,0,10,6.83c9.21,3.28,18,2.41,26.07-3.26,1.48-1,2.76-2.39,4.32-3.28,5.53-3.14,12.08-1.68,16.14,3.46a12.81,12.81,0,0,1-20,16Z"/><path class="cls-2" d="M62.79,23.47c-6.16-6-13.5-8.84-22.15-7.92a25.77,25.77,0,0,0-15.07,6.69,12.52,12.52,0,0,1-16.94-.17,12.73,12.73,0,1,1,18-17.94A27.5,27.5,0,0,0,61,9.11a26.17,26.17,0,0,0,3.63-2.85,12.6,12.6,0,0,1,16.48-.33A12.79,12.79,0,0,1,65.65,26.29a36.74,36.74,0,0,1-3-2.62Z"/></svg>