<svg id="Layer_1" data-name="Layer 1" xmlns="http://www.w3.org/2000/svg" viewBox="0 0 204.2 204.2"><defs><style>.cls-1{fill:#0065ff;}</style></defs><path class="cls-1" d="M90,158.78c10.14,10.77,22.73,15.32,37.35,14.17a43.09,43.09,0,0,0,26.34-11.39,21.42,21.42,0,0,1,30.15,1c7.91,8.11,8.25,21.39.77,29.57-8.31,9.1-21.34,10.22-30.47,2.54-1.8-1.52-3.2-3.52-5-5.1-12.5-11.27-27-14.64-43.3-10.79a41.39,41.39,0,0,0-18.63,9.95,21.33,21.33,0,0,1-29.47-.21A22,22,0,0,1,56,159c7.53-9.06,20.2-10.85,29.6-4.09A53.55,53.55,0,0,1,90,158.78Z"/><path class="cls-1" d="M106.29,140.68c-7.8-8.06-17.93-12.59-29.64-13.4-12.74-.88-24.12,2.59-33.79,11.3a21.31,21.31,0,0,1-31-2.08c-7.67-9-6.31-23.07,3-30.8,9-7.5,22.24-6.44,30.37,2.61a43.07,43.07,0,0,0,28.44,14.41c13.61,1.43,25.84-2,36.26-11.26a21.62,21.62,0,0,1,31.48,2.83c7.6,9.6,5.33,23.91-4.74,31.25C128.16,151.68,114.8,151.41,106.29,140.68Z"/><path class="cls-1" d="M158,94.74A44.67,44.67,0,0,0,122.4,81,44.2,44.2,0,0,0,94.32,92.46a21.53,21.53,0,0,1-29.41-.36,21.9,21.9,0,0,1-1.77-29.31c8.45-10.65,24-11.12,33.37-.83a41.82,41.82,0,0,0,17.07,11.65c15.72,5.6,30.64,4.11,44.48-5.55,2.53-1.77,4.71-4.09,7.37-5.6,9.44-5.36,20.61-2.87,27.53,5.9,6.17,7.81,5.69,19.86-1.09,27.43a21.75,21.75,0,0,1-33-.13Z"/><path class="cls-1" d="M114,44.43c-10.5-10.26-23-15.08-37.78-13.5A43.91,43.91,0,0,0,50.47,42.34,21.36,21.36,0,0,1,21.56,42,21.71,21.71,0,1,1,52.32,11.45a46.93,46.93,0,0,0,58.55,8.49,45.82,45.82,0,0,0,6.2-4.85,21.48,21.48,0,0,1,28.11-.57,21.82,21.82,0,0,1-26.34,34.74,63.34,63.34,0,0,1-5.09-4.49Z"/></svg>